<svg width="35" height="35" viewBox="0 0 35 35" fill="none" xmlns="http://www.w3.org/2000/svg">
<path d="M34.62 17.1242C34.62 25.7727 28.2111 32.9226 19.8854 34.0829C19.1069 34.1908 18.3104 34.2472 17.502 34.2472C16.5688 34.2472 15.6524 34.1728 14.7599 34.0289C6.60818 32.7162 0.382812 25.6467 0.382812 17.1242C0.382812 7.66702 8.04758 0 17.5008 0C26.954 0 34.62 7.66702 34.62 17.1242Z" fill="#1877F2"/>
<path d="M19.8879 13.7491V17.4795H24.5011L23.7706 22.5044H19.8879V34.0818C19.1094 34.1897 18.3129 34.2461 17.5045 34.2461C16.5713 34.2461 15.6548 34.1717 14.7624 34.0278V22.5044H10.5078V17.4795H14.7624V12.9153C14.7624 10.0836 17.057 7.78711 19.8891 7.78711V7.78951C19.8974 7.78951 19.9046 7.78711 19.913 7.78711H24.5023V12.133H21.5036C20.6123 12.133 19.8891 12.8565 19.8891 13.7479L19.8879 13.7491Z" fill="white"/>
</svg>
