<svg width="26" height="26" viewBox="0 0 26 26" fill="none" xmlns="http://www.w3.org/2000/svg">
<path d="M25.3584 12.82C25.3584 19.0718 20.7256 24.2402 14.7072 25.0789C14.1445 25.157 13.5688 25.1978 12.9843 25.1978C12.3098 25.1978 11.6473 25.144 11.0022 25.0399C5.10952 24.0911 0.609375 18.9807 0.609375 12.82C0.609375 5.98368 6.15002 0.441406 12.9835 0.441406C19.8169 0.441406 25.3584 5.98368 25.3584 12.82Z" fill="#1877F2"/>
<path d="M14.7103 10.3801V13.0766H18.045L17.517 16.7091H14.7103V25.078C14.1475 25.156 13.5718 25.1968 12.9874 25.1968C12.3128 25.1968 11.6503 25.143 11.0052 25.0389V16.7091H7.92969V13.0766H11.0052V9.77731C11.0052 7.73039 12.6639 6.07031 14.7111 6.07031V6.07205C14.7172 6.07205 14.7224 6.07031 14.7285 6.07031H18.0459V9.2118H15.8782C15.234 9.2118 14.7111 9.73481 14.7111 10.3792L14.7103 10.3801Z" fill="white"/>
</svg>
