<svg width="32" height="32" viewBox="0 0 32 32" fill="none" xmlns="http://www.w3.org/2000/svg">
<rect width="32" height="32" rx="16" fill="#5988FF"/>
<rect x="6.90912" y="5.90909" width="18.1818" height="18.1818" fill="white"/>
<path d="M24.5195 5H7.47656C6.66016 5 6 5.64453 6 6.44141V23.5547C6 24.3516 6.66016 25 7.47656 25H24.5195C25.3359 25 26 24.3516 26 23.5586V6.44141C26 5.64453 25.3359 5 24.5195 5ZM11.9336 22.043H8.96484V12.4961H11.9336V22.043ZM10.4492 11.1953C9.49609 11.1953 8.72656 10.4258 8.72656 9.47656C8.72656 8.52734 9.49609 7.75781 10.4492 7.75781C11.3984 7.75781 12.168 8.52734 12.168 9.47656C12.168 10.4219 11.3984 11.1953 10.4492 11.1953ZM23.043 22.043H20.0781V17.4023C20.0781 16.2969 20.0586 14.8711 18.5352 14.8711C16.9922 14.8711 16.7578 16.0781 16.7578 17.3242V22.043H13.7969V12.4961H16.6406V13.8008H16.6797C17.0742 13.0508 18.043 12.2578 19.4844 12.2578C22.4883 12.2578 23.043 14.2344 23.043 16.8047V22.043V22.043Z" fill="#5988FF"/>
</svg>
