<svg width="32" height="32" viewBox="0 0 32 32" fill="none" xmlns="http://www.w3.org/2000/svg">
<rect width="32" height="32" rx="16" fill="#5988FF"/>
<path d="M19.2555 15.9988C19.2555 17.7953 17.7992 19.2516 16.0027 19.2516C14.2063 19.2516 12.75 17.7953 12.75 15.9988C12.75 14.2024 14.2063 12.7461 16.0027 12.7461C17.7992 12.7461 19.2555 14.2024 19.2555 15.9988Z" fill="white"/>
<path d="M23.6072 10.2448C23.4508 9.82111 23.2013 9.4376 22.8772 9.1228C22.5624 8.79866 22.1791 8.54921 21.7552 8.39285C21.4113 8.25931 20.8948 8.10035 19.9434 8.05705C18.9142 8.01011 18.6056 8 16.0001 8C13.3944 8 13.0858 8.00985 12.0569 8.05679C11.1055 8.10035 10.5887 8.25931 10.2451 8.39285C9.82111 8.54921 9.4376 8.79866 9.12306 9.1228C8.79892 9.4376 8.54947 9.82085 8.39285 10.2448C8.25931 10.5887 8.10035 11.1055 8.05705 12.0569C8.01011 13.0858 8 13.3944 8 16.0001C8 18.6056 8.01011 18.9142 8.05705 19.9434C8.10035 20.8948 8.25931 21.4113 8.39285 21.7552C8.54947 22.1791 8.79866 22.5624 9.1228 22.8772C9.4376 23.2013 9.82085 23.4508 10.2448 23.6072C10.5887 23.741 11.1055 23.8999 12.0569 23.9432C13.0858 23.9901 13.3941 24 15.9999 24C18.6059 24 18.9145 23.9901 19.9431 23.9432C20.8945 23.8999 21.4113 23.741 21.7552 23.6072C22.6062 23.2789 23.2789 22.6062 23.6072 21.7552C23.7407 21.4113 23.8996 20.8948 23.9432 19.9434C23.9901 18.9142 24 18.6056 24 16.0001C24 13.3944 23.9901 13.0858 23.9432 12.0569C23.8999 11.1055 23.741 10.5887 23.6072 10.2448V10.2448ZM16.0001 21.0107C13.2325 21.0107 10.989 18.7675 10.989 15.9999C10.989 13.2323 13.2325 10.989 16.0001 10.989C18.7675 10.989 21.011 13.2323 21.011 15.9999C21.011 18.7675 18.7675 21.0107 16.0001 21.0107ZM21.2091 11.9619C20.5624 11.9619 20.0381 11.4376 20.0381 10.7909C20.0381 10.1442 20.5624 9.61989 21.2091 9.61989C21.8558 9.61989 22.3801 10.1442 22.3801 10.7909C22.3799 11.4376 21.8558 11.9619 21.2091 11.9619Z" fill="white"/>
</svg>
