<svg width="32" height="32" viewBox="0 0 32 32" fill="none" xmlns="http://www.w3.org/2000/svg">
<rect width="32" height="32" rx="16" fill="#5988FF"/>
<path d="M23.3333 12.3333L16 16.9167L8.66665 12.3333V10.5L16 15.0833L23.3333 10.5V12.3333ZM23.3333 8.66666H8.66665C7.64915 8.66666 6.83331 9.48249 6.83331 10.5V21.5C6.83331 21.9862 7.02647 22.4525 7.37028 22.7964C7.7141 23.1402 8.18042 23.3333 8.66665 23.3333H23.3333C23.8195 23.3333 24.2859 23.1402 24.6297 22.7964C24.9735 22.4525 25.1666 21.9862 25.1666 21.5V10.5C25.1666 10.0138 24.9735 9.54744 24.6297 9.20363C24.2859 8.85981 23.8195 8.66666 23.3333 8.66666Z" fill="white"/>
</svg>
