<svg width="90" height="100" viewBox="0 0 90 100" fill="none" xmlns="http://www.w3.org/2000/svg">
<path d="M59.5791 39.4053C58.7922 34.1894 55.8291 25.4572 49.7318 24.7017C42.1103 23.7575 40.7613 28.0741 40.0869 33.0652C39.4124 38.0563 39.21 47.0943 45.2803 48.9828C51.3506 50.8713 61.4676 51.6807 62.9515 57.3462C64.4353 63.0118 64.1655 67.3284 58.2301 71.78C52.2948 76.2315 38.9402 71.173 37.1191 64.4282M60.9955 20.9922L59.5791 42.4404" stroke="#FD98FB" stroke-width="25.63" stroke-linecap="round"/>
<path d="M37.1875 56.876L36.8523 78.9987" stroke="#FD98FB" stroke-width="25.63" stroke-linecap="round"/>
<path d="M59.5791 39.4053C58.7922 34.1894 55.8291 25.4572 49.7318 24.7017C42.1103 23.7575 40.7613 28.0741 40.0869 33.0652C39.4124 38.0563 39.21 47.0943 45.2803 48.9828C51.3506 50.8713 61.4676 51.6807 62.9515 57.3462C64.4353 63.0118 64.1655 67.3284 58.2301 71.78C52.2948 76.2315 38.9402 71.173 37.1191 64.4282M60.9955 20.9922L59.5791 42.4404" stroke="white" stroke-width="6.07026" stroke-linecap="round"/>
<path d="M37.1875 56.876L36.8523 78.9987" stroke="white" stroke-width="6.07026" stroke-linecap="round"/>
</svg>
