<svg width="54" height="51" viewBox="0 0 54 51" fill="none" xmlns="http://www.w3.org/2000/svg">
<path d="M27.0024 38.9222L37.2898 31.4838L41.6833 45.1533C42.2757 46.9965 40.1649 48.522 38.6007 47.3812L27.0024 38.9222ZM48.8753 23.1067C50.4472 21.9701 49.6432 19.486 47.7035 19.486H34.7735C33.9081 19.486 33.1409 18.9294 32.8723 18.1068L28.9036 5.95248C28.3032 4.11354 25.7016 4.11354 25.1012 5.95249L21.1325 18.1068C20.8639 18.9294 20.0967 19.486 19.2313 19.486H6.31784C4.37677 19.486 3.57363 21.9729 5.14804 23.1082L15.5779 30.6294C16.2836 31.1383 16.5794 32.0452 16.3093 32.8724L12.3431 45.0188C11.7427 46.8576 13.8426 48.3928 15.4126 47.2629L27.0024 38.9222L48.8753 23.1067Z" fill="#37BE49"/>
</svg>
