<svg width="19" height="19" viewBox="0 0 19 19" fill="none" xmlns="http://www.w3.org/2000/svg">
<rect width="18.7422" height="18.7422" fill="#37BE49"/>
<path d="M9.36956 12.9367L12.1155 10.9512L13.539 15.3802C13.6181 15.6262 13.3364 15.8298 13.1276 15.6775L9.36956 12.9367ZM15.8763 8.2319C16.0861 8.08021 15.9788 7.74867 15.7199 7.74867H11.2502C11.1347 7.74867 11.0323 7.67439 10.9965 7.56459L9.62331 3.35913C9.54317 3.1137 9.19596 3.1137 9.11582 3.35913L7.74264 7.56459C7.70679 7.67439 7.6044 7.74867 7.4889 7.74867H3.02182C2.76276 7.74867 2.65558 8.08057 2.8657 8.2321L6.4782 10.8371C6.57239 10.9051 6.61186 11.0261 6.57582 11.1365L5.20297 15.3409C5.12284 15.5863 5.40309 15.7912 5.61263 15.6404L9.36956 12.9367L15.8763 8.2319Z" fill="white"/>
</svg>
